# File created by Blade
# Date/Time:  Thu Jan 22 19:34:22 2015
#---------------------------------------------------------
:version 1.10
:name HOM
:units
  mass 1.0
  length 1.000000
  angle deg
:documentation
     Acclaim Skeleton File
:root
   axis xyz
   order TX TY TZ RX RY RZ
   position 0.000000 0.000000 0.000000
   orientation 0 0 0
:bonedata
   begin
      id 1
      name RightUpLeg_dum
      direction -1.000000 0.000000 0.000000
      length 4.478084
      axis 0.0 0.0 0.0 xyz
   end
   begin
      id 2
      name LeftUpLeg_dum
      direction 1.000000 0.000000 0.000000
      length 4.478084
      axis 0.0 0.0 0.0 xyz
   end
   begin
      id 3
      name Spine_dum
      direction 0.000000 1.000000 0.000000
      length 6.068208
      axis 0.0 0.0 0.0 xyz
   end
   begin
      id 4
      name RightUpLeg
      direction 0.000000 -1.000000 0.000000
      length 16.405774
      axis 0.0 0.0 0.0 xyz
      dof rx ry rz
   end
   begin
      id 5
      name RightLeg
      direction 0.000000 -1.000000 0.000000
      length 14.644143
      axis 0.0 0.0 0.0 xyz
      dof rx ry rz
   end
   begin
      id 6
      name RightFoot
      direction 0.000000 -0.258819 0.965926
      length 5.806150
      axis 15.0 0.0 0.0 xyz
      dof rx ry rz
   end
   begin
      id 7
      name RightToeBase
      direction 0.000000 0.000000 1.000000
      length 2.952750
      axis 0.0 0.0 0.0 xyz
      dof rx ry rz
   end
   begin
      id 8
      name LeftUpLeg
      direction 0.000000 -1.000000 0.000000
      length 16.405774
      axis 0.0 0.0 0.0 xyz
      dof rx ry rz
   end
   begin
      id 9
      name LeftLeg
      direction 0.000000 -1.000000 0.000000
      length 14.644143
      axis 0.0 0.0 0.0 xyz
      dof rx ry rz
   end
   begin
      id 10
      name LeftFoot
      direction 0.000000 -0.258819 0.965926
      length 5.806150
      axis 15.0 0.0 0.0 xyz
      dof rx ry rz
   end
   begin
      id 11
      name LeftToeBase
      direction 0.000000 0.000000 1.000000
      length 2.952750
      axis 0.0 0.0 0.0 xyz
      dof rx ry rz
   end
   begin
      id 12
      name Spine
      direction 0.000000 1.000000 0.000000
      length 0.000000
      axis 0.0 0.0 0.0 xyz
      dof rx ry rz
   end
   begin
      id 13
      name Spine_dum1
      direction 0.000000 1.000000 0.000000
      length 10.013923
      axis 0.0 0.0 0.0 xyz
   end
   begin
      id 14
      name Spine_dum2
      direction 0.000000 1.000000 0.000000
      length 10.013923
      axis 0.0 0.0 0.0 xyz
   end
   begin
      id 15
      name Spine_dum3
      direction 0.000000 1.000000 0.000000
      length 15.777476
      axis 0.0 0.0 0.0 xyz
   end
   begin
      id 16
      name RightShoulder
      direction -1.000000 0.000000 0.000000
      length 7.190220
      axis 0.0 0.0 90.0 xyz
      dof rx ry rz
   end
   begin
      id 17
      name RightArm
      direction -1.000000 0.000000 0.000000
      length 10.177469
      axis 0.0 0.0 90.0 xyz
      dof rx ry rz
   end
   begin
      id 18
      name RightForeArm
      direction -1.000000 0.000000 0.000000
      length 8.392114
      axis 0.0 0.0 90.0 xyz
      dof ry rz rx
   end
   begin
      id 19
      name RightHand
      direction -1.000000 0.000000 0.000000
      length 0.000000
      axis 0.0 0.0 90.0 xyz
      dof rx ry rz
   end
   begin
      id 20
      name RightHand_dum1
      direction -1.000000 0.000000 0.000000
      length 3.937000
      axis 0.0 0.0 90.0 xyz
   end
   begin
      id 21
      name RightHand_dum2
      direction 0.000000 0.000000 0.000000
      length 0.000000
      axis 0.0 0.0 90.0 xyz
   end
   begin
      id 22
      name RightHandThumb1
      direction 0.000000 0.000000 1.000000
      length 3.937000
      axis 0.0 0.0 90.0 xyz
      dof rx rz ry
   end
   begin
      id 23
      name LeftShoulder
      direction 1.000000 0.000000 0.000000
      length 7.190220
      axis 0.0 0.0 -90.0 xyz
      dof rx ry rz
   end
   begin
      id 24
      name LeftArm
      direction 1.000000 0.000000 0.000000
      length 10.177469
      axis 0.0 0.0 -90.0 xyz
      dof rx ry rz
   end
   begin
      id 25
      name LeftForeArm
      direction 1.000000 0.000000 0.000000
      length 8.392114
      axis 0.0 0.0 -90.0 xyz
      dof ry rz rx
   end
   begin
      id 26
      name LeftHand
      direction 1.000000 0.000000 0.000000
      length 0.000000
      axis 0.0 0.0 -90.0 xyz
      dof rx ry rz
   end
   begin
      id 27
      name LeftHand_dum1
      direction 1.000000 0.000000 0.000000
      length 3.937000
      axis 0.0 0.0 -90.0 xyz
   end
   begin
      id 28
      name LeftHand_dum2
      direction 0.000000 0.000000 0.000000
      length 0.000000
      axis 0.0 0.0 -90.0 xyz
   end
   begin
      id 29
      name LeftHandThumb1
      direction 0.000000 0.000000 1.000000
      length 3.937000
      axis 0.0 0.0 -90.0 xyz
      dof rx rz ry
   end
   begin
      id 30
      name Head
      direction 0.000000 1.000000 0.000000
      length 4.527550
      axis 0.0 0.0 0.0 xyz
      dof rx ry rz
   end
:hierarchy
   begin
      root RightUpLeg_dum LeftUpLeg_dum Spine_dum
      RightUpLeg_dum RightUpLeg
      LeftUpLeg_dum LeftUpLeg
      Spine_dum Spine
      RightUpLeg RightLeg
      RightLeg RightFoot
      RightFoot RightToeBase
      LeftUpLeg LeftLeg
      LeftLeg LeftFoot
      LeftFoot LeftToeBase
      Spine Spine_dum1 Spine_dum2 Spine_dum3
      Spine_dum1 RightShoulder
      Spine_dum2 LeftShoulder
      Spine_dum3 Head
      RightShoulder RightArm
      RightArm RightForeArm
      RightForeArm RightHand
      RightHand RightHand_dum1 RightHand_dum2
      RightHand_dum2 RightHandThumb1
      LeftShoulder LeftArm
      LeftArm LeftForeArm
      LeftForeArm LeftHand
      LeftHand LeftHand_dum1 LeftHand_dum2
      LeftHand_dum2 LeftHandThumb1
   end

# File created by Blade
# Date/Time:  Thu Jan 22 19:34:15 2015
# Frame Rate: 120.000 fps
#------------------------------------------------------
:FULLY-SPECIFIED
:DEGREES
52
root -3.261167 33.008575 -1.481666 9.306258 -2.350362 2.508247
RightUpLeg -2.367685 -3.779186 -3.395089
RightLeg -1.071045 -0.000000 0.000000
RightFoot -12.146569 -3.531895 4.703841
RightToeBase 7.370975 -0.000000 -0.000000
LeftUpLeg -1.943100 2.695467 2.125095
LeftLeg 0.937649 -0.000000 -0.000000
LeftFoot -12.113806 3.386040 -18.346082
LeftToeBase 8.574802 -0.000000 -0.000000
Spine -10.381062 -2.358133 -1.337902
RightShoulder -20.167764 -12.580326 -24.291439
RightArm 20.503453 26.918828 41.092738
RightForeArm -12.158487 -0.000000 14.281920
RightHand 9.083406 -0.000000 7.618064
RightHandThumb1 -24.326973 -0.000000 -32.862282
LeftShoulder -24.630428 6.786958 29.644562
LeftArm 16.259267 -25.744435 -37.594148
LeftForeArm 21.284048 -0.000000 1.782616
LeftHand 0.609293 -0.000000 -11.239837
LeftHandThumb1 -26.253704 0.000000 33.147579
Head -2.840960 5.929773 1.719720
53
root -3.260975 33.008719 -1.483027 9.304693 -2.349564 2.508264
RightUpLeg -2.370039 -3.785200 -3.394856
RightLeg -1.067436 -0.000000 0.000000
RightFoot -12.144532 -3.524107 4.708771
RightToeBase 7.354440 -0.000000 -0.000000
LeftUpLeg -1.943168 2.703336 2.127213
LeftLeg 0.928651 -0.000000 -0.000000
LeftFoot -12.104988 3.410508 -18.227315
LeftToeBase 8.589761 -0.000000 -0.000000
Spine -10.378561 -2.355507 -1.341463
RightShoulder -20.166489 -12.580374 -24.291314
RightArm 20.501332 26.920528 41.082647
RightForeArm -12.071433 -0.000000 14.283417
RightHand 9.063093 0.000000 7.847621
RightHandThumb1 -24.326973 -0.000000 -32.862282
LeftShoulder -24.633594 6.793884 29.645467
LeftArm 16.259838 -25.746413 -37.606399
LeftForeArm 21.252443 0.000000 1.778671
LeftHand 0.611130 -0.000000 -11.241844
LeftHandThumb1 -26.253704 0.000000 33.147579
Head -2.825326 5.925488 1.707264
54
root -3.260563 33.008833 -1.484971 9.303803 -2.353870 2.507428
RightUpLeg -2.374115 -3.791733 -3.395235
RightLeg -1.065853 -0.000000 0.000000
RightFoot -12.139244 -3.516342 4.718817
RightToeBase 7.346476 -0.000000 -0.000000
LeftUpLeg -1.946907 2.713240 2.127019
LeftLeg 0.935557 -0.000000 -0.000000
LeftFoot -12.118698 3.409586 -18.202668
LeftToeBase 8.650606 -0.000000 -0.000000
Spine -10.377012 -2.349574 -1.339382
RightShoulder -20.165875 -12.599301 -24.297952
RightArm 20.517646 26.914889 41.105383
RightForeArm -12.135467 -0.000000 14.292230
RightHand 9.048180 0.000000 7.645585
RightHandThumb1 -24.326973 -0.000000 -32.862282
LeftShoulder -24.636762 6.785562 29.641311
LeftArm 16.252921 -25.739718 -37.609955
LeftForeArm 21.238479 -0.000000 1.775294
LeftHand 0.621356 0.000000 -11.231500
LeftHandThumb1 -26.253704 0.000000 33.147579
Head -2.812301 5.929073 1.685003
55
root -3.260085 33.008773 -1.485872 9.300461 -2.361416 2.504011
RightUpLeg -2.378398 -3.783137 -3.393558
RightLeg -1.058161 -0.000000 0.000000
RightFoot -12.137620 -3.516118 4.702453
RightToeBase 7.344011 -0.000000 -0.000000
LeftUpLeg -1.944081 2.718706 2.128485
LeftLeg 0.934540 -0.000000 -0.000000
LeftFoot -12.109296 3.397925 -18.243897
LeftToeBase 8.601277 -0.000000 -0.000000
Spine -10.376152 -2.334244 -1.336728
RightShoulder -20.162979 -12.605405 -24.309680
RightArm 20.517027 26.911619 41.111545
RightForeArm -12.131767 0.000000 14.288277
RightHand 9.044454 0.000000 7.672860
RightHandThumb1 -24.326973 -0.000000 -32.862282
LeftShoulder -24.634947 6.797587 29.636962
LeftArm 16.255622 -25.722811 -37.620486
LeftForeArm 21.196867 -0.000000 1.776194
LeftHand 0.651472 -0.000000 -11.241817
LeftHandThumb1 -26.253704 0.000000 33.147579
Head -2.792351 5.941769 1.663768
56
root -3.259291 33.008699 -1.487851 9.299812 -2.356189 2.506503
RightUpLeg -2.382809 -3.783036 -3.396776
RightLeg -1.050471 -0.000000 0.000000
RightFoot -12.144928 -3.519495 4.706412
RightToeBase 7.353857 -0.000000 -0.000000
LeftUpLeg -1.953465 2.705250 2.124583
LeftLeg 0.954020 -0.000000 -0.000000
LeftFoot -12.111213 3.381476 -18.321694
LeftToeBase 8.539586 -0.000000 -0.000000
Spine -10.369878 -2.336339 -1.339983
RightShoulder -20.165476 -12.582271 -24.311483
RightArm 20.507435 26.877228 41.086670
RightForeArm -12.129322 -0.000000 14.272154
RightHand 9.057130 -0.000000 7.688725
RightHandThumb1 -24.326973 -0.000000 -32.862282
LeftShoulder -24.644565 6.805275 29.638843
LeftArm 16.268074 -25.732515 -37.647455
LeftForeArm 21.179173 0.000000 1.774635
LeftHand 0.589884 -0.000000 -11.335177
LeftHandThumb1 -26.253704 0.000000 33.147579
Head -2.788409 5.944566 1.652868
57
root -3.258699 33.008673 -1.489003 9.298074 -2.359109 2.509656
RightUpLeg -2.387376 -3.796950 -3.401850
RightLeg -1.043483 -0.000000 0.000000
RightFoot -12.144762 -3.498582 4.715266
RightToeBase 7.334905 -0.000000 -0.000000
LeftUpLeg -1.954779 2.705909 2.120557
LeftLeg 0.957875 -0.000000 -0.000000
LeftFoot -12.116232 3.379096 -18.323383
LeftToeBase 8.571734 -0.000000 -0.000000
Spine -10.367883 -2.329708 -1.340750
RightShoulder -20.162669 -12.577534 -24.324787
RightArm 20.511787 26.898127 41.097665
RightForeArm -12.094060 -0.000000 14.276611
RightHand 8.987639 -0.000000 7.900062
RightHandThumb1 -24.326973 -0.000000 -32.862282
LeftShoulder -24.644293 6.784392 29.631796
LeftArm 16.246117 -25.704971 -37.630734
LeftForeArm 21.161258 -0.000000 1.776614
LeftHand 0.600801 -0.000000 -11.335522
LeftHandThumb1 -26.253704 0.000000 33.147579
Head -2.775862 5.956576 1.631158
58
root -3.258716 33.008712 -1.490685 9.296704 -2.362783 2.509168
RightUpLeg -2.394344 -3.786549 -3.400512
RightLeg -1.034478 -0.000000 0.000000
RightFoot -12.154819 -3.513205 4.701977
RightToeBase 7.347887 -0.000000 -0.000000
LeftUpLeg -1.959618 2.701398 2.121060
LeftLeg 0.957091 -0.000000 -0.000000
LeftFoot -12.128771 3.410941 -18.265678
LeftToeBase 8.610323 -0.000000 -0.000000
Spine -10.368622 -2.317129 -1.345928
RightShoulder -20.157436 -12.573455 -24.327546
RightArm 20.498737 26.869122 41.078928
RightForeArm -12.068634 -0.000000 14.262407
RightHand 8.984497 -0.000000 7.917041
RightHandThumb1 -24.326973 -0.000000 -32.862282
LeftShoulder -24.638554 6.794378 29.628246
LeftArm 16.249367 -25.715376 -37.643453
LeftForeArm 21.149876 -0.000000 1.792103
LeftHand 0.560716 -0.000000 -11.349924
LeftHandThumb1 -26.253704 0.000000 33.147579
Head -2.756608 5.962858 1.623117
59
root -3.258305 33.008195 -1.491760 9.290150 -2.362738 2.503315
RightUpLeg -2.389273 -3.792940 -3.395110
RightLeg -1.035177 -0.000000 0.000000
RightFoot -12.150650 -3.503957 4.716968
RightToeBase 7.375705 -0.000000 -0.000000
LeftUpLeg -1.955911 2.725548 2.119573
LeftLeg 0.943674 -0.000000 -0.000000
LeftFoot -12.138626 3.410510 -18.310314
LeftToeBase 8.712155 -0.000000 -0.000000
Spine -10.363266 -2.307978 -1.337503
RightShoulder -20.152266 -12.580976 -24.338846
RightArm 20.509830 26.871337 41.090343
RightForeArm -12.169686 -0.000000 14.221671
RightHand 9.221454 -0.000000 7.825355
RightHandThumb1 -24.326973 -0.000000 -32.862282
LeftShoulder -24.631666 6.799710 29.620507
LeftArm 16.246184 -25.701423 -37.643731
LeftForeArm 21.123691 0.000000 1.790467
LeftHand 0.559140 -0.000000 -11.359730
LeftHandThumb1 -26.253704 0.000000 33.147579
Head -2.735875 5.958915 1.602701
60
root -3.258014 33.008733 -1.492889 9.288730 -2.368383 2.511448
RightUpLeg -2.393533 -3.782244 -3.404450
RightLeg -1.031532 -0.000000 0.000000
RightFoot -12.147913 -3.513385 4.713889
RightToeBase 7.316350 -0.000000 -0.000000
LeftUpLeg -1.960229 2.682867 2.116658
LeftLeg 0.975217 -0.000000 -0.000000
LeftFoot -12.126409 3.401891 -18.335433
LeftToeBase 8.541566 -0.000000 -0.000000
Spine -10.362900 -2.306357 -1.351509
RightShoulder -20.145818 -12.592149 -24.337630
RightArm 20.518333 26.871461 41.103499
RightForeArm -12.167181 0.000000 14.212905
RightHand 9.272824 -0.000000 7.807219
RightHandThumb1 -24.326973 -0.000000 -32.862282
LeftShoulder -24.637204 6.773045 29.630784
LeftArm 16.218162 -25.674616 -37.636583
LeftForeArm 21.109552 0.000000 1.807203
LeftHand 0.552755 0.000000 -11.364837
LeftHandThumb1 -26.253704 0.000000 33.147579
Head -2.723928 5.977953 1.607764
61
root -3.257437 33.008602 -1.495078 9.286829 -2.366007 2.507708
RightUpLeg -2.401883 -3.787242 -3.400903
RightLeg -1.015698 -0.000000 0.000000
RightFoot -12.161224 -3.508488 4.713626
RightToeBase 7.372661 -0.000000 -0.000000
LeftUpLeg -1.967517 2.720672 2.112749
LeftLeg 0.970289 -0.000000 -0.000000
LeftFoot -12.141602 3.387737 -18.393443
LeftToeBase 8.665514 -0.000000 -0.000000
Spine -10.359911 -2.300219 -1.343640
RightShoulder -20.148001 -12.616039 -24.343934
RightArm 20.543997 26.883599 41.122619
RightForeArm -12.164931 -0.000000 14.209331
RightHand 9.240977 -0.000000 7.804942
RightHandThumb1 -24.326973 -0.000000 -32.862282
LeftShoulder -24.633126 6.761776 29.625281
LeftArm 16.214825 -25.675205 -37.641124
LeftForeArm 21.103153 -0.000000 1.804206
LeftHand 0.559978 0.000000 -11.378399
LeftHandThumb1 -26.253704 0.000000 33.147579
Head -2.708498 5.980229 1.588461
